# xmcd CD database file
#
# Track frame offsets:
#	150
#	12505
#	23628
#	37686
#	47635
#	62502
#	75347
#	84918
#	99781
#	113502
#	126901
#	140263
#
# Disc length: 2017 seconds
#
# Revision: 0
# Processed by: cddbd v1.5.2PL0 Copyright (c) Steve Scherf et al.
# Submitted via: CDex 1.70beta2
#
DISCID=7a07df0c
DTITLE=Various Artist - Great American Romantic Standards - I'm All For You
DYEAR=2007
DGENRE=Jazz
TTITLE0=Can't Help Loving That Man Of Mine - Lena Horn
TTITLE1=I'm Getting Sentimental Over You - Mel Torme
TTITLE2=I've Got The World On A String - Bing Crosby
TTITLE3=Venus - Frankie Avalon
TTITLE4=I Got It Bad And That Ain't Good - Ella Fitzgerald
TTITLE5=Somebody Loves Me - Peggy Lee
TTITLE6=Our Love Affair - Rosemary Clooney
TTITLE7=Cheek To Cheek - Fred Astaire
TTITLE8=I'm In The Mood For Love - Louis Armstrong
TTITLE9=TIll The End Of Time - Doris Day ( with Les Brown)
TTITLE10=Body And Soul - Billie Holiday
TTITLE11=A-You're Adorable - Perry Como (with The Fontaine Sisters)
EXTD=YEAR: 2007
EXTT0=
EXTT1=
EXTT2=
EXTT3=
EXTT4=
EXTT5=
EXTT6=
EXTT7=
EXTT8=
EXTT9=
EXTT10=
EXTT11=
PLAYORDER=
